<?xml version="1.0" standalone="no"?>
<!DOCTYPE svg PUBLIC "-//W3C//DTD SVG 20010904//EN"
 "http://www.w3.org/TR/2001/REC-SVG-20010904/DTD/svg10.dtd">
<svg version="1.0" xmlns="http://www.w3.org/2000/svg"
 width="512.000000pt" height="512.000000pt" viewBox="0 0 512.000000 512.000000"
 preserveAspectRatio="xMidYMid meet">
<metadata>
Created by potrace 1.14, written by Peter Selinger 2001-2017
</metadata>
<g transform="translate(0.000000,512.000000) scale(0.100000,-0.100000)"
fill="#000000" stroke="none">
<path d="M4285 5106 c-22 -7 -54 -20 -71 -29 -43 -22 -120 -110 -134 -153
l-12 -35 -46 8 c-120 20 -223 -9 -299 -86 -80 -81 -99 -151 -97 -363 1 -71 -1
-128 -4 -128 -2 0 -41 22 -86 49 -97 58 -184 101 -291 145 -80 33 -254 93
-291 100 -10 2 -37 9 -59 14 -22 6 -52 13 -68 16 -114 21 -149 26 -202 32 -33
3 -73 8 -90 10 -37 5 -339 5 -380 0 -16 -2 -59 -7 -95 -11 -72 -8 -243 -40
-305 -57 -22 -7 -42 -12 -45 -13 -41 -10 -144 -44 -215 -72 -550 -216 -993
-625 -1255 -1158 -110 -225 -179 -445 -216 -695 -19 -122 -25 -456 -12 -580
29 -257 107 -534 217 -760 48 -100 120 -231 132 -240 3 -3 14 -18 23 -35 17
-32 24 -41 126 -175 61 -80 216 -242 305 -320 63 -55 226 -175 301 -221 148
-90 475 -239 527 -239 7 0 17 -3 21 -7 3 -4 17 -8 29 -10 12 -2 33 -7 47 -13
32 -12 199 -46 270 -55 30 -4 64 -9 75 -12 11 -2 110 -6 220 -8 179 -2 323 7
440 29 17 3 44 8 60 11 311 57 680 222 945 423 114 86 125 97 261 233 288 287
495 645 599 1031 31 118 55 241 65 333 3 27 8 68 10 90 6 52 6 319 0 370 -2
22 -7 63 -10 90 -7 66 -33 213 -39 224 -3 5 29 29 72 54 188 110 324 288 384
504 21 75 22 98 25 653 4 634 4 629 -58 720 -71 105 -194 150 -336 126 l-41
-7 -20 45 c-28 63 -86 122 -148 151 -65 31 -171 41 -229 21z"/>
</g>
</svg>
